<svg width="19" height="17" viewBox="0 0 19 17" fill="none" xmlns="http://www.w3.org/2000/svg">
    <path d="M10.7398 14.252L8.98286 16L2.01938 9.07229C1.12917 8.19462 0.626587 6.9866 0.626587 5.72451C0.626587 4.46242 1.12917 3.2544 2.01938 2.37672C2.91617 1.49503 4.11369 1.00226 5.35995 1.00226C6.60621 1.00226 7.80378 1.49503 8.70052 2.37672L8.98289 2.65716L9.26526 2.37497C10.1584 1.49642 11.3505 1.00378 12.592 1.00002C13.8335 0.996392 15.0283 1.48188 15.9265 2.35516L15.9463 2.38379C16.8343 3.2612 17.3354 4.46772 17.3354 5.72804C17.3354 6.40387 17.1914 7.06423 16.9208 7.66667" stroke="#463C88"/>
    <path d="M13.1582 12.5H18.3797M15.769 10V15" stroke="#463C88" stroke-linecap="round"/>
</svg>