<svg viewBox="0 0 19 18" fill="none" xmlns="http://www.w3.org/2000/svg">
<path d="M17.3979 1.62619C16.3765 0.578257 15.0178 -0.00432947 13.6061 2.42267e-05C12.1944 0.00453936 10.8388 0.59571 9.82322 1.64996L9.50213 1.98859L9.18104 1.65207C8.16134 0.594042 6.79955 0.00270958 5.3824 0.00270958C3.96525 0.00270958 2.60354 0.594042 1.58377 1.65207C0.571497 2.70528 0 4.1549 0 5.66941C0 7.18392 0.571497 8.63354 1.58377 9.68675L9.5021 18L17.4204 9.68675C18.4302 8.63385 19 7.18604 19 5.67365C19 4.16126 18.4302 2.71344 17.4204 1.66054L17.3979 1.62619Z" fill="#D61212"/>
</svg>
