<svg width="45" height="43" viewBox="0 0 45 43" fill="none" xmlns="http://www.w3.org/2000/svg">
<path d="M44.9402 22.5615L43.4021 16.2191C43.4554 16.0441 43.4476 15.8537 43.364 15.6787C43.2879 15.5189 43.2192 15.3666 43.1509 15.2065L42.6026 12.9298C42.123 10.9577 41.6203 8.87908 40.9962 6.28284C40.9275 6.00106 40.7069 5.78793 40.4251 5.71927L38.6284 5.30797C37.9659 3.85383 37.2504 2.28518 36.405 0.442506C36.2755 0.153244 35.9788 -0.0143333 35.6664 0.000964264C28.8138 0.396961 22.258 2.5061 16.5323 6.06936L9.86257 6.73932C9.65693 6.76209 9.4744 6.861 9.34489 7.0211L3.24587 14.6351C3.15444 14.7418 3.10107 14.8788 3.08612 15.0158L1.59395 26.9389L0.254064 28.2787C-0.0430212 28.5758 -0.0430212 29.0554 0.254064 29.3522C0.406343 29.5045 0.596693 29.5731 0.794517 29.5731C0.992342 29.5731 1.18269 29.497 1.33497 29.3522L2.85777 27.8294C2.97945 27.7077 3.05559 27.5554 3.07871 27.3878L4.57088 15.4187L10.3269 8.2234L13.8827 7.86547C12.0859 9.19048 10.3802 10.6598 8.7966 12.2891C8.57565 12.5175 8.52264 12.8526 8.65179 13.1341L9.44379 14.8625C9.83196 15.7153 10.1899 16.4995 10.5404 17.2609C9.84764 17.9233 9.20049 18.5706 8.6294 19.1337C8.33231 19.4308 8.33231 19.9104 8.6294 20.2072C8.92648 20.5043 9.40609 20.5043 9.70284 20.2072C10.4489 19.4611 11.2256 18.7072 12.0098 17.9685C12.0098 17.9685 12.0173 17.9685 12.0251 17.961C14.8423 15.2961 17.614 12.9358 18.3067 12.8216C19.1517 12.6768 20.4233 14.4967 19.9131 15.5245C19.1898 16.9787 15.4437 22.2248 15.4056 22.2782C15.2988 22.4305 15.2458 22.6133 15.2686 22.8037C15.7407 27.3187 14.3855 30.3035 11.1189 31.9405C10.7457 32.1308 10.5934 32.5877 10.7763 32.9609C10.9133 33.2274 11.1798 33.3797 11.4615 33.3797C11.5758 33.3797 11.69 33.3569 11.8042 33.2961C13.3956 32.5041 14.606 31.4154 15.4514 30.0601V30.0676C15.5731 30.1512 15.7787 30.3266 16.0225 30.3266C16.1747 30.3266 16.4184 30.2198 16.4565 30.1896C24.5348 24.5627 34.3489 22.1874 44.1027 23.4893C44.3539 23.5199 44.6051 23.4284 44.7726 23.2456C44.9402 23.0552 45.0085 22.804 44.9477 22.5528L44.9402 22.5615ZM41.4303 16.8585L42.1689 18.8763C34.4481 18.9218 26.9714 21.1451 20.5295 25.2414C26.5065 20.4674 33.7474 17.5513 41.4301 16.8507L41.4303 16.8585ZM39.6182 7.09695C39.6869 7.39403 39.7552 7.66052 39.8239 7.94196C39.6869 7.64488 39.5499 7.34814 39.4204 7.05108L39.6261 7.09663L39.6182 7.09695ZM21.2681 16.2033C21.7324 15.2668 21.6182 14.0714 20.9561 13.0054C20.3014 11.9548 19.2885 11.2997 18.2986 11.2997C17.819 11.2997 17.0271 11.7412 16.0753 12.4343C16.0525 12.2514 16.0219 12.0689 15.9764 11.8939C21.1386 8.00324 24.3364 6.54127 30.664 5.17823C33.0672 5.17823 33.0345 5.17823 34.5016 7.13507C35.0954 8.44476 35.4914 9.3051 36.0625 10.546C36.405 11.2904 36.6791 11.9394 36.405 12.4343C36.1158 12.9598 35.6429 13.0054 34.5169 13.4319C28.2659 14.8024 24.8397 16.3707 19.6927 20.2083C19.5098 19.9952 19.2892 19.8202 19.0608 19.6753C19.9898 18.3048 20.9109 16.8962 21.2614 16.2035L21.2681 16.2033ZM18.2072 20.9314C18.4584 21.0762 18.6715 21.3047 18.8163 21.6242C19.0219 22.0885 19.6464 22.1724 19.9737 21.9212C25.5626 17.6649 28.7833 16.188 35.6429 14.7566C39.0387 14.048 38.0924 11.6881 37.8278 10.7137C36.9675 8.84086 36.5409 7.90403 35.6884 6.03116C35.5514 5.7266 35.1566 4.69279 34.8215 4.73086C34.2016 3.52446 31.962 3.34244 30.9068 3.57192C23.8486 5.04138 20.3543 6.64815 14.6286 11.0108C14.3468 11.224 14.2479 11.6047 14.4002 11.932C14.6286 12.4344 14.6592 13.0513 14.5069 13.6757C13.6085 14.4297 12.6567 15.2821 11.7277 16.1503C11.0272 14.6122 10.2736 12.9752 10.2736 12.9678C12.3674 10.874 14.6669 9.03128 17.1337 7.4782C17.1717 7.45543 24.6409 2.30069 35.2471 1.54678C36.4728 4.23447 37.4324 6.32827 38.3763 8.39188C38.3838 8.42247 38.3991 8.45273 38.4144 8.48332C39.3736 10.5846 40.3254 12.6557 41.5361 15.3053C32.194 16.0973 23.4758 20.0641 16.7224 26.5661C16.9053 25.4547 16.9355 24.2438 16.8213 22.9189C17.0803 22.5535 17.6133 21.7996 18.2224 20.924L18.2072 20.9314ZM28.349 23.0178C32.9327 21.2591 37.8434 20.3604 42.8539 20.4138L43.204 21.8529C38.1787 21.32 33.1535 21.7234 28.3493 23.0104L28.349 23.0178Z" fill="#463C88"/>
<path d="M20.9727 28.8433C20.5692 28.7291 20.1504 28.9576 20.0284 29.361C19.6857 30.5486 19.3812 31.1429 19.1908 31.4321C18.0715 33.1147 14.1731 34.5232 12.7644 34.9271C12.6577 34.9577 12.5513 35.0185 12.4674 35.0868L5.61477 41.178C5.30274 41.4598 5.27214 41.9394 5.55393 42.2515C5.81294 42.5485 6.30785 42.6016 6.62737 42.3123L13.3505 36.3353C14.409 36.0154 18.9315 34.5534 20.4621 32.2692C20.8353 31.7135 21.1701 30.8912 21.4974 29.7719C21.6117 29.3685 21.3832 28.9497 20.9798 28.8276L20.9727 28.8433Z" fill="#463C88"/>
</svg>
