<svg width="35" height="43" viewBox="0 0 35 43" fill="none" xmlns="http://www.w3.org/2000/svg">
<path d="M33.5668 25.1771C32.496 21.3965 28.2617 19.5626 25.7139 18.7867C25.847 18.6387 25.917 18.434 25.8889 18.2224C25.8539 17.9613 25.6858 17.7428 25.4408 17.6512C24.1741 17.1716 23.4461 16.6425 22.6131 15.5562C22.914 14.8439 23.0962 14.096 23.0962 13.3765C23.0962 12.6075 23.1312 11.0982 23.1593 10.2587C24.7059 10.026 24.9508 9.70858 25.0559 9.5675C25.2868 9.25701 25.8117 8.53783 23.173 6.08284L23.7748 3.54352C23.8307 3.29665 23.7607 3.04284 23.5789 2.8665C19.6039 -0.956655 15.3906 -0.956655 11.4152 2.87343C11.2333 3.04977 11.1633 3.30357 11.2193 3.55045L11.821 6.08977C9.18241 8.54436 9.70729 9.26391 9.93821 9.57443C10.0432 9.7155 10.2882 10.0329 11.8348 10.2656C11.8557 11.1051 11.8979 12.6144 11.8979 13.3834C11.8979 14.103 12.0729 14.8505 12.381 15.5631C11.548 16.6495 10.8271 17.1855 9.55324 17.6581C9.30828 17.7497 9.14018 17.9686 9.10518 18.2293C9.07706 18.434 9.14705 18.6384 9.28016 18.7936C6.73239 19.5695 2.49807 21.4034 1.42728 25.184C0.559251 28.2313 0.0274924 32.1741 0.00653566 32.3366C-0.0565795 32.7951 0.349611 33.1336 0.699557 33.1336H1.39945V36.6604C1.39945 39.1714 8.16026 42.1129 10.2389 42.9593C10.3229 42.9946 10.5957 43.0087 10.652 42.9946C13.3047 42.4019 16.3842 41.457 17.2519 40.1873H17.7487C18.6167 41.457 21.6963 42.395 24.3487 42.9946C24.3977 43.0087 24.6777 42.9946 24.7617 42.9593C26.8332 42.1198 33.6012 39.1714 33.6012 36.6604V33.1336H34.3011C34.861 33.1336 35.0359 32.6468 34.9941 32.3366C34.9731 32.1672 34.441 28.2313 33.5733 25.184L33.5668 25.1771ZM22.3197 3.62116L21.8089 5.75838C18.9462 6.51318 16.0416 6.51318 13.179 5.75838L12.6681 3.62116C15.9086 0.665563 19.0721 0.665563 22.3122 3.62116H22.3197ZM12.794 7.10583C14.3547 7.52212 15.9225 7.73373 17.4901 7.73373C19.0581 7.73373 20.6328 7.5152 22.1863 7.10583C22.8303 7.71231 23.4179 8.3613 23.691 8.75654C22.9352 8.95398 21.0733 9.14449 17.4901 9.14449C13.9066 9.14449 11.576 8.834 11.2892 8.75654C11.5551 8.36167 12.1501 7.71268 12.794 7.10583ZM17.4901 10.5621C19.3308 10.5621 20.7028 10.5057 21.7454 10.421C21.7245 11.2886 21.6895 12.6429 21.6895 13.3836C21.6895 15.7182 19.1839 18.3211 17.4901 18.3211C15.7963 18.3211 13.2908 15.7182 13.2908 13.3836C13.2908 12.6499 13.2558 11.2886 13.2348 10.421C14.2778 10.5058 15.6495 10.5621 17.4901 10.5621H17.4901ZM2.77079 25.5723C3.83471 21.8269 9.06983 20.2609 10.7286 19.8588L14.2912 22.4265C14.5152 22.5887 14.893 22.6592 15.1942 22.3491L16.594 20.9383C16.867 20.6631 16.867 20.2188 16.594 19.9439C16.3209 19.6687 15.88 19.6687 15.6072 19.9439L14.6274 20.9314L11.2048 18.4695C11.9397 18.0674 12.5346 17.5809 13.1226 16.8966C14.2356 18.512 15.9363 19.7392 17.5038 19.7392C19.0717 19.7392 20.7792 18.5117 21.885 16.8966C22.473 17.5809 23.0679 18.0674 23.8028 18.4695L20.3803 20.9314L19.4004 19.9439C19.1273 19.6687 18.6864 19.6687 18.4137 19.9439C18.1406 20.2191 18.1406 20.6634 18.4137 20.9383L19.8135 22.3491C20.0794 22.617 20.5134 22.5748 20.7164 22.4265L24.279 19.8588C25.9306 20.2609 31.173 21.8269 32.2368 25.5723C32.8458 27.7168 33.2936 30.4109 33.4966 31.7231H27.3094V23.9641C27.3094 23.5762 26.9945 23.2588 26.6095 23.2588H8.39793C8.01299 23.2588 7.69804 23.5762 7.69804 23.9641V31.7231H1.51082C1.71392 30.4041 2.16166 27.7168 2.77063 25.5723H2.77079ZM9.09798 38.7767V24.6694H14.3681V28.5205C14.3681 28.9085 14.6831 29.2259 15.068 29.2259H19.9182C20.3032 29.2259 20.6181 28.9085 20.6181 28.5205V24.6694H25.8883V38.7767H9.09798ZM15.7679 24.6694H19.2184V27.8152H15.7679V24.6694ZM10.5537 41.57C6.76738 40.0112 2.79175 37.6905 2.79175 36.6608V33.134H7.691V39.4822C7.691 39.8702 8.00595 40.1876 8.39089 40.1876H14.893C13.8363 40.653 12.2265 41.1751 10.5468 41.57H10.5537ZM32.1872 36.6608C32.1872 37.6905 28.2119 40.0044 24.4252 41.57C22.7245 41.1751 21.0939 40.646 20.0441 40.1876H26.5812C26.9662 40.1876 27.2811 39.8702 27.2811 39.4822V33.134H32.1804V36.6608H32.1872Z" fill="#463C88"/>
</svg>
