<svg width="55" height="43" viewBox="0 0 55 43" fill="none" xmlns="http://www.w3.org/2000/svg">
<path d="M49.867 0H5.13291C2.44886 0 0.270508 2.17835 0.270508 4.8624V32.0918C0.270508 34.7759 2.44886 36.9542 5.13291 36.9542H7.07786C7.6127 36.9542 8.05034 36.5166 8.05034 35.9817C8.05034 35.4469 7.61273 35.0093 7.07786 35.0093H5.13291C3.52829 35.0093 2.21547 33.6964 2.21547 32.0918H9.9953C10.5301 32.0918 10.9678 31.6542 10.9678 31.1193C10.9678 30.5845 10.5302 30.1469 9.9953 30.1469H2.21547V4.8624C2.21547 3.25778 3.52829 1.94496 5.13291 1.94496H49.867C51.4716 1.94496 52.7844 3.25778 52.7844 4.8624V30.1469H30.4174C29.8825 30.1469 29.4449 30.5845 29.4449 31.1193C29.4449 31.6542 29.8825 32.0918 30.4174 32.0918H52.7844C52.7844 33.6964 51.4716 35.0093 49.867 35.0093H28.4724C27.9376 35.0093 27.4999 35.4469 27.4999 35.9817C27.4999 36.5166 27.9375 36.9542 28.4724 36.9542H31.5357L32.1872 40.8441H22.8125L23.2696 38.0823C23.3571 37.5572 22.9973 37.0515 22.4722 36.964C21.947 36.8765 21.4413 37.2363 21.3538 37.7614L20.8384 40.8344H18.7476C18.2128 40.8344 17.7751 41.2721 17.7751 41.8069C17.7751 42.3418 18.2128 42.7794 18.7476 42.7794H36.2522C36.7871 42.7794 37.2247 42.3418 37.2247 41.8069C37.2247 41.2721 36.7871 40.8344 36.2522 40.8344H34.1614L33.5099 36.9445H49.8673C52.5513 36.9445 54.7297 34.7662 54.7297 32.0821V4.86255C54.7297 2.17851 52.5513 0.000155907 49.8673 0.000155907L49.867 0Z" fill="white"/>
<path d="M24.2152 37.343C24.3513 37.7515 24.75 38.0238 25.1682 38.0043C25.5961 37.9946 25.9656 37.7028 26.0726 37.2847L30.7503 20.0523C30.8378 19.712 30.7503 19.3521 30.4974 19.109C30.2446 18.8659 29.8848 18.7686 29.5444 18.8659L12.3899 23.8158C11.9814 23.9325 11.6897 24.3118 11.6897 24.73C11.6897 25.1481 11.9523 25.5371 12.3607 25.6733L17.0675 27.2001L9.30741 35.0868C9.12264 35.2716 9.02539 35.5147 9.02539 35.7772C9.02539 36.0398 9.13236 36.2829 9.31713 36.458L13.4793 40.5521C13.6641 40.7369 13.917 40.8341 14.1601 40.8341C14.4032 40.8341 14.6658 40.7369 14.8505 40.5424L22.6106 32.6557L24.2153 37.3334L24.2152 37.343ZM14.1403 38.4905L11.3687 35.7579L19.5572 27.4433C19.7906 27.2002 19.8879 26.8598 19.8101 26.5292C19.7323 26.1985 19.4892 25.9359 19.1682 25.8387L15.9785 24.8079L28.4164 21.2194L25.0224 33.7159L23.9332 30.5456C23.8263 30.2247 23.554 29.9913 23.2331 29.9135C22.9121 29.8357 22.562 29.9427 22.3286 30.1761L14.1403 38.4905Z" fill="white"/>
<path d="M42.9366 16.9184H33.6699V15.5294H42.9366C44.0679 15.5294 44.9915 15.3443 45.7074 14.9739C46.4321 14.6035 46.9624 14.0964 47.2982 13.4527C47.6341 12.8089 47.802 12.077 47.802 11.2568C47.802 10.4896 47.6341 9.7753 47.2982 9.1139C46.9712 8.45251 46.4498 7.91898 45.7339 7.51333C45.0268 7.10767 44.0944 6.90484 42.9366 6.90484H37.9917V24.7625H36.3611V5.50269H42.9366C44.3507 5.50269 45.5394 5.7452 46.5028 6.23022C47.4661 6.70643 48.1909 7.37664 48.6769 8.24086C49.1719 9.09627 49.4193 10.0928 49.4193 11.2304C49.4193 12.4121 49.1719 13.4306 48.6769 14.286C48.1909 15.1326 47.4661 15.7852 46.5028 16.2437C45.5483 16.6935 44.3596 16.9184 42.9366 16.9184ZM42.8571 18.8761V20.2783H33.6699V18.8761H42.8571Z" fill="white"/>
</svg>
