<svg width="55" height="44" viewBox="0 0 55 44" fill="none" xmlns="http://www.w3.org/2000/svg">
<path d="M35.195 32.7048H3.45212C2.92307 32.7048 2.49022 32.2719 2.49022 31.7429V7.69524H44.814V12.5048C44.814 13.0338 45.2469 13.4667 45.776 13.4667C46.305 13.4667 46.7379 13.0338 46.7379 12.5048V2.88572C46.7379 1.29852 45.4393 0 43.8521 0H3.45212C1.86492 0 0.566406 1.29852 0.566406 2.88572V31.7429C0.566406 33.3301 1.86492 34.6286 3.45212 34.6286H35.195C35.724 34.6286 36.1569 34.1957 36.1569 33.6667C36.1569 33.1376 35.724 32.7048 35.195 32.7048ZM3.45212 1.92381H43.8521C44.3812 1.92381 44.814 2.35667 44.814 2.88572V5.77143H2.49022V2.88572C2.49022 2.35667 2.92307 1.92381 3.45212 1.92381Z" fill="#463C88"/>
<path d="M36.1572 4.80955H37.1191C37.6482 4.80955 38.081 4.3767 38.081 3.84765C38.081 3.3186 37.6482 2.88574 37.1191 2.88574H36.1572C35.6282 2.88574 35.1953 3.3186 35.1953 3.84765C35.1953 4.3767 35.6282 4.80955 36.1572 4.80955Z" fill="#463C88"/>
<path d="M31.3476 4.80955H32.3096C32.8386 4.80955 33.2715 4.3767 33.2715 3.84765C33.2715 3.3186 32.8386 2.88574 32.3096 2.88574H31.3476C30.8186 2.88574 30.3857 3.3186 30.3857 3.84765C30.3857 4.3767 30.8186 4.80955 31.3476 4.80955Z" fill="#463C88"/>
<path d="M40.9668 4.80955H41.9287C42.4577 4.80955 42.8906 4.3767 42.8906 3.84765C42.8906 3.3186 42.4577 2.88574 41.9287 2.88574H40.9668C40.4377 2.88574 40.0049 3.3186 40.0049 3.84765C40.0049 4.3767 40.4377 4.80955 40.9668 4.80955Z" fill="#463C88"/>
<path d="M51.5477 14.4285H40.0049C38.4177 14.4285 37.1191 15.727 37.1191 17.3142V40.3999C37.1191 41.9871 38.4177 43.2856 40.0049 43.2856H51.5477C53.1349 43.2856 54.4334 41.9871 54.4334 40.3999V17.3142C54.4334 15.727 53.1349 14.4285 51.5477 14.4285ZM52.5096 40.3999C52.5096 40.929 52.0768 41.3618 51.5477 41.3618H40.0049C39.4758 41.3618 39.043 40.929 39.043 40.3999V17.3142C39.043 16.7851 39.4758 16.3523 40.0049 16.3523H51.5477C52.0768 16.3523 52.5096 16.7851 52.5096 17.3142V40.3999Z" fill="#463C88"/>
<path d="M46.7383 38.4763H44.8144C44.2854 38.4763 43.8525 38.9092 43.8525 39.4382C43.8525 39.9673 44.2854 40.4001 44.8144 40.4001H46.7383C47.2673 40.4001 47.7002 39.9673 47.7002 39.4382C47.7002 38.9092 47.2673 38.4763 46.7383 38.4763Z" fill="#463C88"/>
<path d="M47.0171 27.2127L44.8142 29.4156L44.5351 29.1365C44.1598 28.7611 43.5538 28.7611 43.179 29.1365C42.8036 29.5118 42.8036 30.1177 43.179 30.4926L44.1409 31.4545C44.5256 31.8392 45.2277 31.7336 45.497 31.4545L48.3827 28.5688C48.758 28.1934 48.758 27.5875 48.3827 27.2126C48.0074 26.8373 47.4015 26.8373 47.0266 27.2126L47.0171 27.2127Z" fill="#463C88"/>
<path d="M32.2997 21.3158L33.2616 15.5444C33.3097 15.2652 33.2328 14.9767 33.0499 14.7654C32.8669 14.5537 32.5977 14.4287 32.319 14.4287H20.7761C20.2471 14.4287 19.8142 14.8616 19.8142 15.3906C19.8142 15.9197 20.2471 16.3525 20.7761 16.3525H31.1841L30.5202 20.3058L18.631 22.0084L16.8996 14.217C16.8034 13.7747 16.4092 13.4668 15.957 13.4668H14.0332C13.5041 13.4668 13.0713 13.8997 13.0713 14.4287C13.0713 14.9577 13.5041 15.3906 14.0332 15.3906H15.1875L16.9477 23.2976C17.0439 23.7399 17.4381 24.0478 17.8903 24.0478C17.9384 24.0478 31.4922 22.1145 31.4922 22.1145C31.9057 22.057 32.2329 21.7297 32.3004 21.3162L32.2997 21.3158Z" fill="#463C88"/>
<path d="M20.7666 25.9712C20.7666 27.0336 19.9051 27.895 18.8428 27.895C17.7804 27.895 16.9189 27.0336 16.9189 25.9712C16.9189 24.9088 17.7804 24.0474 18.8428 24.0474C19.9051 24.0474 20.7666 24.9088 20.7666 25.9712Z" fill="#463C88"/>
<path d="M31.3476 25.9712C31.3476 27.0336 30.4862 27.895 29.4238 27.895C28.3614 27.895 27.5 27.0336 27.5 25.9712C27.5 24.9088 28.3614 24.0474 29.4238 24.0474C30.4862 24.0474 31.3476 24.9088 31.3476 25.9712Z" fill="#463C88"/>
</svg>
