<svg>
    <symbol id="logo" xmlns="http://www.w3.org/2000/svg" viewBox="0 0 88 26">
        <path d="M71.4315 11.3899L69.4543 10.8631C68.9347 10.7091 68.1822 10.6304 68.1822 10.0692C68.1822 9.74414 68.442 9.57306 69.0258 9.57306C69.4209 9.57306 70.056 9.81646 70.5127 10.1648C70.7498 10.3457 71.0657 10.4286 71.3311 10.2979L73.3043 9.32628C73.6751 9.14367 73.7845 8.6427 73.483 8.3517C72.2585 7.1697 70.6241 6.68539 69.0224 6.68539C66.5087 6.68539 64.41 7.94454 64.41 10.165C64.41 11.2838 64.8554 12.153 65.8946 12.7449C66.9068 13.3196 67.9933 13.5523 69.4036 13.9116C69.7714 14.0039 70.4294 14.175 70.4294 14.5958C70.4294 15.0544 69.9368 15.2117 69.3497 15.2117C68.5237 15.2117 67.8038 14.9117 67.3268 14.4552C67.0907 14.2293 66.7499 14.114 66.4604 14.2558L64.4217 15.2542C64.0854 15.4189 63.954 15.8546 64.1903 16.1546C65.4307 17.7297 67.5499 18.2158 69.019 18.2158C71.86 18.2123 74.2657 16.9534 74.2657 14.5138C74.2657 12.7893 72.9802 11.8587 71.4315 11.3899Z"></path>
        <path d="M60.454 4.0539C60.454 3.68791 60.1712 3.39123 59.8222 3.39123H57.607C57.258 3.39123 56.9752 3.68791 56.9752 4.0539V17.0043C56.9752 17.3703 57.258 17.667 57.607 17.667H59.8223C60.1712 17.667 60.454 17.3703 60.454 17.0043V9.8224H62.1017C62.4507 9.8224 62.7335 9.52572 62.7335 9.15974V7.2154C62.7335 6.84942 62.4507 6.55273 62.1017 6.55273H60.454V4.0539Z"></path>
        <path d="M49.6406 9.65373C50.744 9.65373 51.6874 10.3529 52.102 11.3367H47.2348C47.6428 10.3529 48.5699 9.65373 49.6406 9.65373ZM49.6374 6.68539C46.5982 6.68539 43.8726 8.84826 43.8726 12.4575C43.8726 15.9125 46.5982 18.2158 49.6374 18.2158C51.4754 18.2158 53.5084 17.685 54.6465 16.2864C54.8842 15.9942 54.757 15.5642 54.4276 15.3963L52.6595 14.4948C52.4474 14.3866 52.1975 14.4155 51.9934 14.5395C51.3027 14.9591 50.427 15.1721 49.641 15.1721C48.6123 15.1721 47.7146 14.5688 47.284 13.6537L54.7512 13.6569C55.0679 13.6571 55.3379 13.4113 55.3628 13.0801C55.3832 12.8076 55.3893 12.5896 55.3893 12.4575C55.3893 8.84826 52.6635 6.68539 49.6374 6.68539Z"></path>
        <path d="M36.3121 14.9784C34.9574 14.9715 33.8438 13.8962 33.8438 12.4705C33.8438 11.0724 34.9574 9.91819 36.3121 9.91118C37.6669 9.91819 38.7804 11.0724 38.7804 12.4705C38.7804 13.8962 37.6636 14.9715 36.3121 14.9784ZM36.3188 6.68543C33.1929 6.69227 30.3778 8.87723 30.3778 12.4877C30.3778 14.439 31.2731 16.0228 32.6147 17.0363C32.6147 17.0396 32.6147 17.0363 32.6147 17.0431C31.2038 17.2527 30.1365 18.5683 30.2555 20.1178C30.3712 21.6258 31.6531 22.6084 33.107 22.6084H42.7019C43.0508 22.6084 43.3337 22.3117 43.3337 21.9457V19.9522C43.3337 19.5863 43.0547 19.2897 42.7059 19.2895C40.7583 19.2887 34.9486 19.2864 34.9376 19.2864C34.6005 19.2726 34.3296 18.9841 34.3296 18.6302C34.3296 18.4069 34.4386 18.2076 34.6038 18.0909C34.6104 18.0874 34.6171 18.084 34.6237 18.0805C34.6468 18.0634 34.6733 18.0565 34.6997 18.0429C35.2185 18.1803 35.757 18.2591 36.3089 18.2591C36.3121 18.2591 36.3121 18.2591 36.3155 18.2591C36.3188 18.2591 36.3188 18.2591 36.322 18.2591C39.2728 18.249 41.9228 16.4659 42.2136 13.3912C42.2136 13.3809 42.2335 13.0684 42.2335 13.0169C42.2301 11.7766 41.6387 10.6773 40.73 10.0142H41.8593C42.2082 10.0142 42.4911 9.71755 42.4911 9.35157V7.3481C42.4911 6.98212 42.2082 6.68543 41.8593 6.68543H36.3188Z"></path>
        <path d="M84.229 6.68563C83.8801 6.68563 83.5972 6.98232 83.5972 7.3483V9.62899C83.5972 10.8416 82.5938 11.8239 81.355 11.8239C80.1162 11.8239 79.1128 10.8416 79.1128 9.62899V7.3483C79.1128 6.98232 78.83 6.68563 78.481 6.68563H75.9599C75.6109 6.68563 75.3281 6.98232 75.3281 7.3483V9.47866H75.3315C75.3554 12.2715 77.1846 14.1625 79.5258 14.8039V17.0043C79.5258 17.3703 79.8086 17.667 80.1576 17.667H82.706C83.055 17.667 83.3378 17.3703 83.3378 17.0043V14.7504C85.6039 14.0623 87.341 12.198 87.3649 9.47866H87.3683V7.3483C87.3683 6.98232 87.0854 6.68563 86.7365 6.68563H84.229Z"></path>
        <path fill-rule="evenodd" clip-rule="evenodd" d="M12.8944 -6.67572e-05C6.05502 -6.67572e-05 0.5 5.81624 0.5 12.9999C0.5 20.1735 6.04534 25.9999 12.8944 25.9999C19.7335 25.9999 25.2887 20.1836 25.2887 12.9999C25.2887 5.81624 19.7384 -6.67572e-05 12.8944 -6.67572e-05ZM19.7239 16.8268C18.4228 19.4755 15.8127 21.2727 12.8053 21.2727C8.50091 21.2727 5.00703 17.5663 5.00703 12.9999C5.00703 8.4336 8.50091 4.72722 12.8053 4.72722C15.7275 4.72722 18.285 6.4342 19.6184 8.96669C19.7036 9.12574 19.6389 9.34073 19.4848 9.42255L17.5555 10.4587C17.4097 10.5405 17.2232 10.4889 17.1421 10.3385C16.2746 8.75609 14.6575 7.6897 12.8094 7.6897C11.4191 7.6897 10.1789 8.28311 9.26691 9.24201C8.35496 10.2095 7.80382 11.5251 7.79575 12.9999C7.79575 14.4748 8.35496 15.7904 9.26691 16.7579C10.1789 17.7253 11.4191 18.3102 12.8094 18.3102C14.7144 18.3102 16.3681 17.1837 17.2192 15.5197C17.2961 15.3648 17.4785 15.3133 17.6245 15.3819L19.582 16.3538C19.7481 16.4483 19.813 16.6592 19.7239 16.8268ZM11.9428 14.3342H20.4653C20.642 14.3342 20.7858 14.1987 20.7817 14.0359V11.9677C20.7817 11.8012 20.6378 11.6656 20.4611 11.6656H11.9428C11.7661 11.6656 11.6223 11.8012 11.6223 11.9677V14.0321C11.6223 14.1987 11.7661 14.3342 11.9428 14.3342Z"></path>
    </symbol>

    <symbol id="arrow" xmlns="http://www.w3.org/2000/svg" viewBox="0 0 11 18">
        <path d="M10.0029 1L1.99713 9L10.0029 17" stroke-width="2"></path>
    </symbol>

    <symbol id="favorites" fill="none" xmlns="http://www.w3.org/2000/svg" viewBox="0 0 19 17">
        <path d="M10.7398 14.252L8.98286 16L2.01938 9.07229C1.12917 8.19462 0.626587 6.9866 0.626587 5.72451C0.626587 4.46242 1.12917 3.2544 2.01938 2.37672C2.91617 1.49503 4.11369 1.00226 5.35995 1.00226C6.60621 1.00226 7.80378 1.49503 8.70052 2.37672L8.98289 2.65716L9.26526 2.37497C10.1584 1.49642 11.3505 1.00378 12.592 1.00002C13.8335 0.996392 15.0283 1.48188 15.9265 2.35516L15.9463 2.38379C16.8343 3.2612 17.3354 4.46772 17.3354 5.72804C17.3354 6.40387 17.1914 7.06423 16.9208 7.66667"></path>
        <path d="M13.1582 12.5H18.3797M15.769 10V15" stroke-linecap="round"></path>
    </symbol>

    <symbol id="favorites-active" fill="none" xmlns="http://www.w3.org/2000/svg" viewBox="0 0 19 18">
        <path d="M17.3979 1.62619C16.3765 0.578257 15.0178 -0.00432947 13.6061 2.42267e-05C12.1944 0.00453936 10.8388 0.59571 9.82322 1.64996L9.50213 1.98859L9.18104 1.65207C8.16134 0.594042 6.79955 0.00270958 5.3824 0.00270958C3.96525 0.00270958 2.60354 0.594042 1.58377 1.65207C0.571497 2.70528 0 4.1549 0 5.66941C0 7.18392 0.571497 8.63354 1.58377 9.68675L9.5021 18L17.4204 9.68675C18.4302 8.63385 19 7.18604 19 5.67365C19 4.16126 18.4302 2.71344 17.4204 1.66054L17.3979 1.62619Z" fill="#FF0000"></path>
    </symbol>

    <symbol id="comparison" fill="none" xmlns="http://www.w3.org/2000/svg" viewBox="0 0 14 18">
        <path d="M0.715195 7V17" stroke-linecap="round"></path>
        <path d="M13.2468 11V17" stroke-linecap="round"></path>
        <path d="M6.98102 1V17" stroke-linecap="round"></path>
    </symbol>

    <symbol id="comparison-active" fill="none" xmlns="http://www.w3.org/2000/svg" viewBox="0 0 14 18">
        <path d="M0.715195 7V17" stroke-linecap="round"></path>
        <path d="M13.2468 11V17" stroke-linecap="round"></path>
        <path d="M6.98102 1V17" stroke-linecap="round"></path>
    </symbol>

    <symbol id="search" fill="none" xmlns="http://www.w3.org/2000/svg" viewBox="0 0 16 17">
        <circle cx="8" cy="7.5" r="7"></circle>
        <line x1="12.2071" y1="13" x2="15.5" y2="16.2929" stroke-linecap="round"></line>
    </symbol>

    <symbol id="catalog" fill="none" xmlns="http://www.w3.org/2000/svg" viewBox="0 0 18 17">
        <rect x="1" y="0.5" width="7" height="7" rx="1.5"></rect>
        <rect x="1" y="9.5" width="7" height="7" rx="1.5"></rect>
        <rect x="10" y="0.5" width="7" height="7" rx="1.5"></rect>
        <rect x="10" y="9.5" width="7" height="7" rx="1.5"></rect>
    </symbol>

    <symbol id="location" fill="none" xmlns="http://www.w3.org/2000/svg" viewBox="0 0 13 19">
        <path d="M6.50001 18C10.4477 16.1231 17.7557 0.54541 6.50002 0.54541C-4.75569 0.54541 2.55223 16.1231 6.50001 18Z"></path>
        <circle cx="6.5" cy="6.54523" r="3.31818"></circle>
    </symbol>

    <symbol id="phone" fill="none" xmlns="http://www.w3.org/2000/svg" viewBox="0 0 17 18">
        <path fill-rule="evenodd" clip-rule="evenodd" d="M3.44636 1.17891L1.40232 3.21884C0.333442 4.288 0.292568 5.99293 0.870956 7.74386C1.44917 9.49496 2.66075 11.3924 4.38202 13.1143C6.1033 14.836 8.00486 16.0523 9.75541 16.6307C11.506 17.2091 13.206 17.1638 14.2748 16.0946L16.3189 14.0547C16.4349 13.9393 16.5 13.7823 16.5 13.6186C16.5 13.4548 16.4349 13.2979 16.3189 13.1825L13.0576 9.92034C12.9423 9.80425 12.7853 9.73917 12.6216 9.73917C12.4579 9.73917 12.301 9.80425 12.1857 9.92034L10.2235 11.8876C10.1902 11.921 10.1327 11.9567 9.96459 11.9603C9.79651 11.9641 9.53762 11.9177 9.23787 11.8013C8.63851 11.5684 7.88143 11.0668 7.18028 10.3656C6.47914 9.66431 5.97767 8.90253 5.74504 8.30302C5.62864 8.00319 5.58229 7.74888 5.58606 7.58055C5.58984 7.41243 5.62538 7.3549 5.65868 7.32158L7.62085 5.3589V5.35872C7.73673 5.24332 7.80197 5.08637 7.80197 4.92254C7.80197 4.75888 7.73673 4.60192 7.62085 4.48652L4.3141 1.1789C4.07409 0.940368 3.68662 0.940368 3.44661 1.1789L3.44636 1.17891Z"></path>
    </symbol>

    <symbol id="cart" fill="none" xmlns="http://www.w3.org/2000/svg" viewBox="0 0 19 17">
        <path d="M5.93548 6.76923H2.26548C1.61972 6.76923 1.14328 7.37216 1.29257 8.00043L3.01085 15.2312C3.11795 15.6819 3.52054 16 3.98376 16H14.5119C14.9545 16 15.3445 15.709 15.4705 15.2847L17.6184 8.05398C17.8088 7.41293 17.3285 6.76923 16.6598 6.76923H13.0645M5.93548 6.76923L8.12903 1M5.93548 6.76923H11.9677H13.0645M13.0645 6.76923L10.871 1" stroke-linecap="round"></path>
    </symbol>

    <symbol id="comparison" fill="none" xmlns="http://www.w3.org/2000/svg" viewBox="0 0 14 18">
        <path d="M0.715195 7V17" stroke-linecap="round"></path>
        <path d="M13.2468 11V17" stroke-linecap="round"></path>
        <path d="M6.98102 1V17" stroke-linecap="round"></path>
    </symbol>

    <symbol id="comparison-active" fill="none" xmlns="http://www.w3.org/2000/svg" viewBox="0 0 14 18">
        <path d="M0.715195 7V17" stroke-linecap="round"></path>
        <path d="M13.2468 11V17" stroke-linecap="round"></path>
        <path d="M6.98102 1V17" stroke-linecap="round"></path>
    </symbol>

    <symbol id="favorites" fill="none" xmlns="http://www.w3.org/2000/svg" viewBox="0 0 19 17">
        <path d="M10.7398 14.252L8.98286 16L2.01938 9.07229C1.12917 8.19462 0.626587 6.9866 0.626587 5.72451C0.626587 4.46242 1.12917 3.2544 2.01938 2.37672C2.91617 1.49503 4.11369 1.00226 5.35995 1.00226C6.60621 1.00226 7.80378 1.49503 8.70052 2.37672L8.98289 2.65716L9.26526 2.37497C10.1584 1.49642 11.3505 1.00378 12.592 1.00002C13.8335 0.996392 15.0283 1.48188 15.9265 2.35516L15.9463 2.38379C16.8343 3.2612 17.3354 4.46772 17.3354 5.72804C17.3354 6.40387 17.1914 7.06423 16.9208 7.66667"></path>
        <path d="M13.1582 12.5H18.3797M15.769 10V15" stroke-linecap="round"></path>
    </symbol>

    <symbol id="favorites-active" fill="none" xmlns="http://www.w3.org/2000/svg" viewBox="0 0 19 18">
        <path d="M17.3979 1.62619C16.3765 0.578257 15.0178 -0.00432947 13.6061 2.42267e-05C12.1944 0.00453936 10.8388 0.59571 9.82322 1.64996L9.50213 1.98859L9.18104 1.65207C8.16134 0.594042 6.79955 0.00270958 5.3824 0.00270958C3.96525 0.00270958 2.60354 0.594042 1.58377 1.65207C0.571497 2.70528 0 4.1549 0 5.66941C0 7.18392 0.571497 8.63354 1.58377 9.68675L9.5021 18L17.4204 9.68675C18.4302 8.63385 19 7.18604 19 5.67365C19 4.16126 18.4302 2.71344 17.4204 1.66054L17.3979 1.62619Z"></path>
    </symbol>

    <symbol id="user" xmlns="http://www.w3.org/2000/svg" xml:space="preserve" viewBox="0 0 512 512">
      <path d="M256 0c-74.439 0-135 60.561-135 135s60.561 135 135 135 135-60.561 135-135S330.439 0 256 0zm0 240c-57.897 0-105-47.103-105-105S198.103 30 256 30s105 47.103 105 105-47.103 105-105 105zM423.966 358.195C387.006 320.667 338.009 300 286 300h-60c-52.008 0-101.006 20.667-137.966 58.195C51.255 395.539 31 444.833 31 497c0 8.284 6.716 15 15 15h420c8.284 0 15-6.716 15-15 0-52.167-20.255-101.461-57.034-138.805zM61.66 482c7.515-85.086 78.351-152 164.34-152h60c85.989 0 156.825 66.914 164.34 152H61.66z"></path>
    </symbol>

    <symbol id="stars" fill="none" xmlns="http://www.w3.org/2000/svg" viewBox="0 0 54 28">
        <path d="M8.61379 23.1334C8.89849 22.9833 9.23868 22.9833 9.52383 23.1334L12.3686 24.6288L11.8251 21.4612C11.771 21.1442 11.876 20.8204 12.1066 20.5957L14.4079 18.3522L11.2276 17.8901C10.9088 17.8437 10.6336 17.6436 10.4913 17.3548L9.0687 14.4728L7.64655 17.3548C7.50374 17.6436 7.2286 17.8437 6.91025 17.8901L3.72948 18.3522L6.03123 20.5957C6.26136 20.8204 6.36686 21.1442 6.31229 21.4612L5.76882 24.6288L8.61379 23.1334ZM4.92495 27.2825C4.20729 27.6595 3.36915 27.0501 3.50595 26.2515L4.29728 21.6372L0.945024 18.3695C0.36471 17.8038 0.684881 16.8183 1.48713 16.7014L6.11961 16.0283L8.19164 11.8306C8.55047 11.1034 9.5869 11.1034 9.94572 11.8306L12.0173 16.0283L16.6502 16.7014C17.452 16.8183 17.7727 17.8038 17.1919 18.3695L13.8396 21.6372L14.631 26.2515C14.7683 27.0501 13.9297 27.6595 13.212 27.2825L9.06836 25.104L4.92495 27.2825Z"></path>
        <path d="M45.125 23.1334C45.4102 22.9833 45.7504 22.9833 46.0351 23.1334L48.8803 24.6288L48.3368 21.4612C48.2822 21.1442 48.3877 20.8204 48.6179 20.5957L50.9196 18.3522L47.7389 17.8901C47.4205 17.8437 47.1453 17.6436 47.0025 17.3548L45.5804 14.4728L44.1578 17.3548C44.0154 17.6436 43.7403 17.8437 43.4215 17.8901L40.2412 18.3522L42.5425 20.5957C42.7731 20.8204 42.8781 21.1442 42.824 21.4612L42.2805 24.6288L45.125 23.1334ZM41.4366 27.2825C40.719 27.6595 39.8804 27.0501 40.0176 26.2515L40.809 21.6372L37.4567 18.3695C36.876 17.8038 37.1966 16.8183 37.9984 16.7014L42.6313 16.0283L44.7029 11.8306C45.0617 11.1034 46.0981 11.1034 46.457 11.8306L48.529 16.0283L53.1615 16.7014C53.9637 16.8183 54.2839 17.8038 53.7036 18.3695L50.3513 21.6372L51.1427 26.2515C51.2796 27.0501 50.4414 27.6595 49.7237 27.2825L45.5801 25.104L41.4366 27.2825Z"></path>
        <path d="M26.8694 18.5696C27.1545 18.4195 27.4947 18.4195 27.7798 18.5696L32.924 21.2738L31.9412 15.5457C31.8871 15.2287 31.9921 14.9049 32.2227 14.6803L36.3845 10.6235L30.6333 9.78761C30.3145 9.74168 30.0393 9.54157 29.8965 9.25277L27.3247 4.0413L24.7528 9.25277C24.61 9.54157 24.3349 9.74167 24.0161 9.78761L18.2648 10.6235L22.4266 14.6803C22.6572 14.9049 22.7622 15.2287 22.7081 15.5457L21.7253 21.2738L26.8694 18.5696ZM20.8816 23.9275C20.1639 24.3045 19.3257 23.6951 19.4625 22.8965L20.6932 15.7217L15.4804 10.6408C14.9001 10.075 15.2203 9.0895 16.0225 8.97261L23.2259 7.92613L26.4477 1.39858C26.8061 0.671827 27.8429 0.671827 28.2013 1.39858L31.423 7.92613L38.6264 8.97261C39.4287 9.08949 39.7489 10.075 39.1685 10.6408L33.9558 15.7217L35.1864 22.8965C35.3233 23.6951 34.4851 24.3045 33.7674 23.9275L27.3244 20.5397L20.8816 23.9275Z"></path>
    </symbol>

    <symbol id="support" fill="none" xmlns="http://www.w3.org/2000/svg" viewBox="0 0 51 52">
        <path d="M25.3316 28.9339C20.123 28.9339 15.9233 24.5341 15.9233 19.1335C15.9233 13.7323 20.123 9.33301 25.3316 9.33301C30.5403 9.33301 34.74 13.7323 34.74 19.1335C34.74 24.5341 30.5403 28.9339 25.3316 28.9339ZM25.3316 26.5817C29.2163 26.5817 32.3877 23.2588 32.3877 19.1335C32.3877 15.0076 29.2163 11.6847 25.3316 11.6847C21.447 11.6847 18.275 15.0076 18.275 19.1335C18.275 23.2588 21.447 26.5817 25.3316 26.5817Z"></path>
        <path d="M14.2291 35.8934C13.0888 36.6005 12.3953 37.8469 12.3953 39.1884C12.3953 39.8037 12.8941 40.3025 13.5093 40.3025H36.371C36.9863 40.3025 37.485 39.8037 37.485 39.1884C37.485 37.8469 36.7916 36.6006 35.6512 35.8934L29.3351 31.9738C27.9383 32.4971 26.4563 32.7695 24.9402 32.7695C23.424 32.7695 21.9421 32.4971 20.5452 31.9738L14.2291 35.8934ZM24.9402 30.4173C26.5809 30.4173 28.1357 30.0263 29.5286 29.3257L36.8916 33.8945C38.7231 35.031 39.8366 37.0332 39.8366 39.1885C39.8366 41.1026 38.285 42.6547 36.3709 42.6547H13.5092C11.595 42.6547 10.0435 41.1026 10.0435 39.1885C10.0435 37.0331 11.1569 35.031 12.9885 33.8945L20.3514 29.3257C21.7444 30.0263 23.2993 30.4173 24.9399 30.4173H24.9402Z"></path>
        <path d="M0.637315 25.4057C0.635127 25.2755 0.634033 25.1448 0.634033 25.0141C0.634033 11.3738 11.6918 0.316895 25.3312 0.316895C38.9707 0.316895 50.0284 11.3742 50.0284 25.0141C50.0284 25.1448 50.0273 25.2755 50.0257 25.4057H47.6728C47.675 25.2755 47.6761 25.1448 47.6761 25.0141C47.6761 12.6732 37.6722 2.66901 25.3311 2.66901C12.9899 2.66901 2.98599 12.6735 2.98599 25.0141C2.98599 25.1448 2.98709 25.2755 2.98927 25.4057H0.637315Z"></path>
        <path d="M45.3247 23.0534C44.8915 23.0534 44.5404 23.404 44.5404 23.8371V34.0298C44.5404 34.4629 44.8915 34.814 45.3247 34.814H46.8926C47.3258 34.814 47.6763 34.4629 47.6763 34.0298V23.8371C47.6763 23.404 47.3258 23.0534 46.8926 23.0534H45.3247ZM45.3247 20.7012H46.8926C48.6246 20.7012 50.0285 22.105 50.0285 23.837V34.0297C50.0285 35.7617 48.6246 37.1655 46.8926 37.1655H45.3247C43.5926 37.1655 42.1882 35.7617 42.1882 34.0297V23.837C42.1882 22.105 43.5926 20.7012 45.3247 20.7012Z"></path>
        <path d="M3.77071 23.0534C3.33756 23.0534 2.98645 23.404 2.98645 23.8371V34.0298C2.98645 34.4629 3.33756 34.814 3.77071 34.814H5.33864C5.77179 34.814 6.1229 34.4629 6.1229 34.0298V23.8371C6.1229 23.404 5.77179 23.0534 5.33864 23.0534H3.77071ZM3.77071 20.7012H5.33864C7.07066 20.7012 8.47451 22.105 8.47451 23.837V34.0297C8.47451 35.7617 7.07066 37.1655 5.33864 37.1655H3.77071C2.03869 37.1655 0.634277 35.7617 0.634277 34.0297V23.837C0.634277 22.105 2.03869 20.7012 3.77071 20.7012Z"></path>
        <path d="M44.7519 35.4705H47.1042C47.1042 47.2732 44.578 50.1026 33.6257 50.1026V47.7503C43.2156 47.7503 44.7519 46.0298 44.7519 35.4702V35.4705Z"></path>
        <path fill-rule="evenodd" clip-rule="evenodd" d="M29.644 46.5747H31.9963C33.2951 46.5747 34.3485 47.8736 34.3485 48.927C34.3485 50.2258 33.2952 51.2792 31.9963 51.2792H29.644C28.3451 51.2792 27.2917 49.9803 27.2917 48.927C27.2917 47.6281 28.3451 46.5747 29.644 46.5747Z"></path>
    </symbol>

    <symbol id="car" fill="none" xmlns="http://www.w3.org/2000/svg" viewBox="0 0 52 33">
        <path d="M27.8716 24.2799V2.52679H2.03972V24.2799H5.469C6.29313 22.0954 8.40373 20.541 10.8771 20.541C13.3504 20.541 15.461 22.0954 16.2851 24.2799H27.8716ZM14.6158 26.3194C14.6158 24.2543 12.9419 22.5805 10.8768 22.5805C8.81172 22.5805 7.13787 24.2543 7.13787 26.3194H1.35994C0.608834 26.3194 0 25.7106 0 24.96V1.84724C0 1.09661 0.608846 0.487793 1.35994 0.487793H28.5514C29.302 0.487793 29.9108 1.09664 29.9108 1.84724V24.96C29.9108 25.7106 29.302 26.3194 28.5514 26.3194H14.6158Z"></path>
        <path d="M49.4452 24.2799V16.4351L44.0381 13.114C43.3946 12.719 42.9015 12.121 42.6354 11.415L40.5699 5.92583H29.9107V24.2801H33.34C34.1641 22.0955 36.2747 20.5411 38.748 20.5411C41.2214 20.5411 43.3315 22.0955 44.1561 24.2801L49.4452 24.2799ZM38.7482 22.5805C36.6831 22.5805 35.0092 24.2543 35.0092 26.3194H29.2308C28.4802 26.3194 27.8713 25.7106 27.8713 24.96V5.24617C27.8713 4.49554 28.4802 3.88672 29.2308 3.88672H41.0407C41.6064 3.88672 42.1133 4.23761 42.3129 4.76775L44.5444 10.6969C44.6506 10.9795 44.8479 11.2185 45.1054 11.3764L50.8363 14.8968C51.2394 15.1438 51.4845 15.5824 51.4845 16.0552V24.9603C51.4845 25.7109 50.8757 26.3197 50.1251 26.3197H42.4865C42.4865 24.2546 40.8126 22.5808 38.748 22.5808L38.7482 22.5805Z"></path>
        <path d="M38.7482 32.0974C35.5569 32.0974 32.9697 29.5103 32.9697 26.3189C32.9697 23.1276 35.5568 20.5405 38.7482 20.5405C41.9394 20.5405 44.5261 23.1276 44.5261 26.3189C44.5261 29.5103 41.9394 32.0974 38.7482 32.0974ZM38.7482 30.0579C40.8128 30.0579 42.4866 28.384 42.4866 26.3189C42.4866 24.2539 40.8128 22.58 38.7482 22.58C36.6831 22.58 35.0092 24.2539 35.0092 26.3189C35.0092 28.384 36.6831 30.0579 38.7482 30.0579Z"></path>
        <path d="M10.8771 32.0974C7.68583 32.0974 5.09863 29.5103 5.09863 26.3189C5.09863 23.1276 7.6857 20.5405 10.8771 20.5405C14.0684 20.5405 16.6555 23.1276 16.6555 26.3189C16.6555 29.5103 14.0684 32.0974 10.8771 32.0974ZM10.8771 30.0579C12.9421 30.0579 14.616 28.384 14.616 26.3189C14.616 24.2539 12.9421 22.58 10.8771 22.58C8.81196 22.58 7.13811 24.2539 7.13811 26.3189C7.13811 28.384 8.81196 30.0579 10.8771 30.0579Z"></path>
    </symbol>

    <symbol id="percent" fill="none" xmlns="http://www.w3.org/2000/svg" viewBox="0 0 50 51">
        <path d="M25.0143 50.0286C11.3746 50.0286 0.317139 38.9713 0.317139 25.3315C0.317139 11.6916 11.3744 0.634277 25.0143 0.634277C38.6542 0.634277 49.7115 11.6916 49.7115 25.3315C49.7115 38.9713 38.6542 50.0286 25.0143 50.0286ZM25.0143 47.6769C37.3552 47.6769 47.3594 37.6725 47.3594 25.3319C47.3594 12.9913 37.3549 2.98681 25.0143 2.98681C12.6737 2.98681 2.66925 12.9913 2.66925 25.3319C2.66925 37.6725 12.6737 47.6769 25.0143 47.6769Z"></path>
        <path fill-rule="evenodd" clip-rule="evenodd" d="M20.3099 17.4909C20.3099 18.7898 19.2571 19.8432 17.9582 19.8432C16.6588 19.8432 15.606 18.7898 15.606 17.4909C15.606 16.192 16.6587 15.1387 17.9582 15.1387C19.2571 15.1387 20.3099 16.192 20.3099 17.4909Z"></path>
        <path fill-rule="evenodd" clip-rule="evenodd" d="M35.2067 33.1721C35.2067 34.471 34.1534 35.5243 32.8544 35.5243C31.5555 35.5243 30.5022 34.471 30.5022 33.1721C30.5022 31.8731 31.5555 30.8198 32.8544 30.8198C34.1534 30.8198 35.2067 31.8731 35.2067 33.1721Z"></path>
        <path fill-rule="evenodd" clip-rule="evenodd" d="M13.9256 34.3647L34.438 13.8523C34.8974 13.3929 35.7287 13.4799 36.1011 13.8523C36.5605 14.3117 36.5605 15.0561 36.1011 15.5155L15.5887 36.0279C15.1293 36.4872 14.298 36.4003 13.9256 36.0279C13.4662 35.5685 13.4662 34.8241 13.9256 34.3647Z"></path>
    </symbol>

    <symbol id="heart" xmlns="http://www.w3.org/2000/svg" xml:space="preserve" viewBox="0 0 512 512">
      <path d="M502.997 174.869c0-37.57-14.53-72.791-40.913-99.173-26.383-26.398-61.606-40.937-99.179-40.937-37.572 0-72.802 14.538-99.2 40.935l-7.697 7.697-7.713-7.696c-26.384-26.398-61.606-40.937-99.179-40.937-37.572 0-72.802 14.538-99.199 40.935-26.384 26.384-40.914 61.604-40.914 99.175s14.53 72.791 40.914 99.175L251.064 475.19a7.002 7.002 0 0 0 9.902 0l201.118-201.147c26.383-26.383 40.913-61.604 40.913-99.174zm-50.816 89.273L256.014 460.337 59.819 264.142c-49.225-49.225-49.225-129.32 0-178.545 23.752-23.753 55.466-36.834 89.298-36.834 33.831 0 65.536 13.081 89.282 36.839l12.671 12.643a7 7 0 0 0 9.896-.006l12.642-12.642c23.752-23.753 55.466-36.834 89.298-36.834s65.537 13.081 89.276 36.834c23.739 23.739 36.812 55.443 36.812 89.273s-13.074 65.533-36.813 89.272z"></path>
    </symbol>

    <symbol id="arrow-thin" fill="none" xmlns="http://www.w3.org/2000/svg" viewBox="0 0 10 19">
        <path d="M9 1L1 9.5L9 18"></path>
    </symbol>

    <symbol id="close" fill="none" xmlns="http://www.w3.org/2000/svg" viewBox="0 0 15 16">
        <line x1="0.707229" y1="1.55566" x2="14.0001" y2="14.8486" stroke-linecap="round"></line>
        <line x1="14" y1="0.707107" x2="0.707107" y2="14" stroke-linecap="round"></line>
    </symbol>

    <symbol id="orders" fill="none" xmlns="http://www.w3.org/2000/svg" viewBox="0 0 18 15">
        <path d="M5.5 1H1.5C0.947715 1 0.5 1.44772 0.5 2V13.5C0.5 14.0523 0.947715 14.5 1.5 14.5H8.75H16C16.5523 14.5 17 14.0523 17 13.5V2C17 1.44772 16.5523 1 16 1H12M5.5 1V3.5C5.5 4.05228 5.94772 4.5 6.5 4.5H11C11.5523 4.5 12 4.05228 12 3.5V1M5.5 1H12"></path>
    </symbol>

    <symbol id="check" fill="none" xmlns="http://www.w3.org/2000/svg" viewBox="0 0 13 10">
        <path d="M0.5 5.5L5 9.5L12.5 0.5" stroke-linecap="round" stroke-linejoin="round"></path>
    </symbol>

    <symbol id="in-cart"  fill="none" xmlns="http://www.w3.org/2000/svg" viewBox="0 0 19 17">
        <path d="M5.93548 6.76923H2.26548C1.61972 6.76923 1.14328 7.37216 1.29257 8.00043L3.01085 15.2312C3.11795 15.6819 3.52054 16 3.98376 16H14.5119C14.9545 16 15.3445 15.709 15.4705 15.2847L17.6184 8.05398C17.8088 7.41293 17.3285 6.76923 16.6598 6.76923H13.0645M5.93548 6.76923L8.12903 1M5.93548 6.76923H11.9677H13.0645M13.0645 6.76923L10.871 1" stroke-linecap="round"></path>
        <path d="M6 11L8 13.5L12.5 9" stroke-linecap="round" stroke-linejoin="round"></path>
    </symbol>

    <symbol id="rows" fill="none" xmlns="http://www.w3.org/2000/svg" viewBox="0 0 17 17">
        <rect x="0.5" y="0.5" width="16" height="7" rx="1.5"></rect>
        <rect x="0.5" y="9.5" width="16" height="7" rx="1.5"></rect>
    </symbol>

    <symbol id="grid"  fill="none" xmlns="http://www.w3.org/2000/svg" viewBox="0 0 17 17">
        <rect x="0.5" y="0.5" width="4" height="7" rx="1.5"></rect>
        <rect x="6.5" y="0.5" width="4" height="7" rx="1.5"></rect>
        <rect x="12.5" y="0.5" width="4" height="7" rx="1.5"></rect>
        <rect x="0.5" y="9.5" width="4" height="7" rx="1.5"></rect>
        <rect x="6.5" y="9.5" width="4" height="7" rx="1.5"></rect>
        <rect x="12.5" y="9.5" width="4" height="7" rx="1.5"></rect>
    </symbol>

    <symbol id="non-cash" fill="none" xmlns="http://www.w3.org/2000/svg" viewBox="0 0 55 43">
        <path d="M49.867 0H5.13291C2.44886 0 0.270508 2.17835 0.270508 4.8624V32.0918C0.270508 34.7759 2.44886 36.9542 5.13291 36.9542H7.07786C7.6127 36.9542 8.05034 36.5166 8.05034 35.9817C8.05034 35.4469 7.61273 35.0093 7.07786 35.0093H5.13291C3.52829 35.0093 2.21547 33.6964 2.21547 32.0918H9.9953C10.5301 32.0918 10.9678 31.6542 10.9678 31.1193C10.9678 30.5845 10.5302 30.1469 9.9953 30.1469H2.21547V4.8624C2.21547 3.25778 3.52829 1.94496 5.13291 1.94496H49.867C51.4716 1.94496 52.7844 3.25778 52.7844 4.8624V30.1469H30.4174C29.8825 30.1469 29.4449 30.5845 29.4449 31.1193C29.4449 31.6542 29.8825 32.0918 30.4174 32.0918H52.7844C52.7844 33.6964 51.4716 35.0093 49.867 35.0093H28.4724C27.9376 35.0093 27.4999 35.4469 27.4999 35.9817C27.4999 36.5166 27.9375 36.9542 28.4724 36.9542H31.5357L32.1872 40.8441H22.8125L23.2696 38.0823C23.3571 37.5572 22.9973 37.0515 22.4722 36.964C21.947 36.8765 21.4413 37.2363 21.3538 37.7614L20.8384 40.8344H18.7476C18.2128 40.8344 17.7751 41.2721 17.7751 41.8069C17.7751 42.3418 18.2128 42.7794 18.7476 42.7794H36.2522C36.7871 42.7794 37.2247 42.3418 37.2247 41.8069C37.2247 41.2721 36.7871 40.8344 36.2522 40.8344H34.1614L33.5099 36.9445H49.8673C52.5513 36.9445 54.7297 34.7662 54.7297 32.0821V4.86255C54.7297 2.17851 52.5513 0.000155907 49.8673 0.000155907L49.867 0Z"></path>
        <path d="M24.2152 37.343C24.3513 37.7515 24.75 38.0238 25.1682 38.0043C25.5961 37.9946 25.9656 37.7028 26.0726 37.2847L30.7503 20.0523C30.8378 19.712 30.7503 19.3521 30.4974 19.109C30.2446 18.8659 29.8848 18.7686 29.5444 18.8659L12.3899 23.8158C11.9814 23.9325 11.6897 24.3118 11.6897 24.73C11.6897 25.1481 11.9523 25.5371 12.3607 25.6733L17.0675 27.2001L9.30741 35.0868C9.12264 35.2716 9.02539 35.5147 9.02539 35.7772C9.02539 36.0398 9.13236 36.2829 9.31713 36.458L13.4793 40.5521C13.6641 40.7369 13.917 40.8341 14.1601 40.8341C14.4032 40.8341 14.6658 40.7369 14.8505 40.5424L22.6106 32.6557L24.2153 37.3334L24.2152 37.343ZM14.1403 38.4905L11.3687 35.7579L19.5572 27.4433C19.7906 27.2002 19.8879 26.8598 19.8101 26.5292C19.7323 26.1985 19.4892 25.9359 19.1682 25.8387L15.9785 24.8079L28.4164 21.2194L25.0224 33.7159L23.9332 30.5456C23.8263 30.2247 23.554 29.9913 23.2331 29.9135C22.9121 29.8357 22.562 29.9427 22.3286 30.1761L14.1403 38.4905Z"></path>
        <path d="M42.9366 16.9184H33.6699V15.5294H42.9366C44.0679 15.5294 44.9915 15.3443 45.7074 14.9739C46.4321 14.6035 46.9624 14.0964 47.2982 13.4527C47.6341 12.8089 47.802 12.077 47.802 11.2568C47.802 10.4896 47.6341 9.7753 47.2982 9.1139C46.9712 8.45251 46.4498 7.91898 45.7339 7.51333C45.0268 7.10767 44.0944 6.90484 42.9366 6.90484H37.9917V24.7625H36.3611V5.50269H42.9366C44.3507 5.50269 45.5394 5.7452 46.5028 6.23022C47.4661 6.70643 48.1909 7.37664 48.6769 8.24086C49.1719 9.09627 49.4193 10.0928 49.4193 11.2304C49.4193 12.4121 49.1719 13.4306 48.6769 14.286C48.1909 15.1326 47.4661 15.7852 46.5028 16.2437C45.5483 16.6935 44.3596 16.9184 42.9366 16.9184ZM42.8571 18.8761V20.2783H33.6699V18.8761H42.8571Z"></path>
    </symbol>

    <symbol id="pay-card" fill="none" xmlns="http://www.w3.org/2000/svg" viewBox="0 0 55 44">
        <path d="M35.195 32.7048H3.45212C2.92307 32.7048 2.49022 32.2719 2.49022 31.7429V7.69524H44.814V12.5048C44.814 13.0338 45.2469 13.4667 45.776 13.4667C46.305 13.4667 46.7379 13.0338 46.7379 12.5048V2.88572C46.7379 1.29852 45.4393 0 43.8521 0H3.45212C1.86492 0 0.566406 1.29852 0.566406 2.88572V31.7429C0.566406 33.3301 1.86492 34.6286 3.45212 34.6286H35.195C35.724 34.6286 36.1569 34.1957 36.1569 33.6667C36.1569 33.1376 35.724 32.7048 35.195 32.7048ZM3.45212 1.92381H43.8521C44.3812 1.92381 44.814 2.35667 44.814 2.88572V5.77143H2.49022V2.88572C2.49022 2.35667 2.92307 1.92381 3.45212 1.92381Z"></path>
        <path d="M36.1572 4.80955H37.1191C37.6482 4.80955 38.081 4.3767 38.081 3.84765C38.081 3.3186 37.6482 2.88574 37.1191 2.88574H36.1572C35.6282 2.88574 35.1953 3.3186 35.1953 3.84765C35.1953 4.3767 35.6282 4.80955 36.1572 4.80955Z"></path>
        <path d="M31.3476 4.80955H32.3096C32.8386 4.80955 33.2715 4.3767 33.2715 3.84765C33.2715 3.3186 32.8386 2.88574 32.3096 2.88574H31.3476C30.8186 2.88574 30.3857 3.3186 30.3857 3.84765C30.3857 4.3767 30.8186 4.80955 31.3476 4.80955Z"></path>
        <path d="M40.9668 4.80955H41.9287C42.4577 4.80955 42.8906 4.3767 42.8906 3.84765C42.8906 3.3186 42.4577 2.88574 41.9287 2.88574H40.9668C40.4377 2.88574 40.0049 3.3186 40.0049 3.84765C40.0049 4.3767 40.4377 4.80955 40.9668 4.80955Z"></path>
        <path d="M51.5477 14.4285H40.0049C38.4177 14.4285 37.1191 15.727 37.1191 17.3142V40.3999C37.1191 41.9871 38.4177 43.2856 40.0049 43.2856H51.5477C53.1349 43.2856 54.4334 41.9871 54.4334 40.3999V17.3142C54.4334 15.727 53.1349 14.4285 51.5477 14.4285ZM52.5096 40.3999C52.5096 40.929 52.0768 41.3618 51.5477 41.3618H40.0049C39.4758 41.3618 39.043 40.929 39.043 40.3999V17.3142C39.043 16.7851 39.4758 16.3523 40.0049 16.3523H51.5477C52.0768 16.3523 52.5096 16.7851 52.5096 17.3142V40.3999Z"></path>
        <path d="M46.7383 38.4763H44.8144C44.2854 38.4763 43.8525 38.9092 43.8525 39.4382C43.8525 39.9673 44.2854 40.4001 44.8144 40.4001H46.7383C47.2673 40.4001 47.7002 39.9673 47.7002 39.4382C47.7002 38.9092 47.2673 38.4763 46.7383 38.4763Z"></path>
        <path d="M47.0171 27.2127L44.8142 29.4156L44.5351 29.1365C44.1598 28.7611 43.5538 28.7611 43.179 29.1365C42.8036 29.5118 42.8036 30.1177 43.179 30.4926L44.1409 31.4545C44.5256 31.8392 45.2277 31.7336 45.497 31.4545L48.3827 28.5688C48.758 28.1934 48.758 27.5875 48.3827 27.2126C48.0074 26.8373 47.4015 26.8373 47.0266 27.2126L47.0171 27.2127Z"></path>
        <path d="M32.2997 21.3158L33.2616 15.5444C33.3097 15.2652 33.2328 14.9767 33.0499 14.7654C32.8669 14.5537 32.5977 14.4287 32.319 14.4287H20.7761C20.2471 14.4287 19.8142 14.8616 19.8142 15.3906C19.8142 15.9197 20.2471 16.3525 20.7761 16.3525H31.1841L30.5202 20.3058L18.631 22.0084L16.8996 14.217C16.8034 13.7747 16.4092 13.4668 15.957 13.4668H14.0332C13.5041 13.4668 13.0713 13.8997 13.0713 14.4287C13.0713 14.9577 13.5041 15.3906 14.0332 15.3906H15.1875L16.9477 23.2976C17.0439 23.7399 17.4381 24.0478 17.8903 24.0478C17.9384 24.0478 31.4922 22.1145 31.4922 22.1145C31.9057 22.057 32.2329 21.7297 32.3004 21.3162L32.2997 21.3158Z"></path>
        <path d="M20.7666 25.9712C20.7666 27.0336 19.9051 27.895 18.8428 27.895C17.7804 27.895 16.9189 27.0336 16.9189 25.9712C16.9189 24.9088 17.7804 24.0474 18.8428 24.0474C19.9051 24.0474 20.7666 24.9088 20.7666 25.9712Z"></path>
        <path d="M31.3476 25.9712C31.3476 27.0336 30.4862 27.895 29.4238 27.895C28.3614 27.895 27.5 27.0336 27.5 25.9712C27.5 24.9088 28.3614 24.0474 29.4238 24.0474C30.4862 24.0474 31.3476 24.9088 31.3476 25.9712Z"></path>
    </symbol>

    <symbol id="cash" fill="none" xmlns="http://www.w3.org/2000/svg" viewBox="0 0 45 43">
        <path d="M44.9402 22.5615L43.4021 16.2191C43.4554 16.0441 43.4476 15.8537 43.364 15.6787C43.2879 15.5189 43.2192 15.3666 43.1509 15.2065L42.6026 12.9298C42.123 10.9577 41.6203 8.87908 40.9962 6.28284C40.9275 6.00106 40.7069 5.78793 40.4251 5.71927L38.6284 5.30797C37.9659 3.85383 37.2504 2.28518 36.405 0.442506C36.2755 0.153244 35.9788 -0.0143333 35.6664 0.000964264C28.8138 0.396961 22.258 2.5061 16.5323 6.06936L9.86257 6.73932C9.65693 6.76209 9.4744 6.861 9.34489 7.0211L3.24587 14.6351C3.15444 14.7418 3.10107 14.8788 3.08612 15.0158L1.59395 26.9389L0.254064 28.2787C-0.0430212 28.5758 -0.0430212 29.0554 0.254064 29.3522C0.406343 29.5045 0.596693 29.5731 0.794517 29.5731C0.992342 29.5731 1.18269 29.497 1.33497 29.3522L2.85777 27.8294C2.97945 27.7077 3.05559 27.5554 3.07871 27.3878L4.57088 15.4187L10.3269 8.2234L13.8827 7.86547C12.0859 9.19048 10.3802 10.6598 8.7966 12.2891C8.57565 12.5175 8.52264 12.8526 8.65179 13.1341L9.44379 14.8625C9.83196 15.7153 10.1899 16.4995 10.5404 17.2609C9.84764 17.9233 9.20049 18.5706 8.6294 19.1337C8.33231 19.4308 8.33231 19.9104 8.6294 20.2072C8.92648 20.5043 9.40609 20.5043 9.70284 20.2072C10.4489 19.4611 11.2256 18.7072 12.0098 17.9685C12.0098 17.9685 12.0173 17.9685 12.0251 17.961C14.8423 15.2961 17.614 12.9358 18.3067 12.8216C19.1517 12.6768 20.4233 14.4967 19.9131 15.5245C19.1898 16.9787 15.4437 22.2248 15.4056 22.2782C15.2988 22.4305 15.2458 22.6133 15.2686 22.8037C15.7407 27.3187 14.3855 30.3035 11.1189 31.9405C10.7457 32.1308 10.5934 32.5877 10.7763 32.9609C10.9133 33.2274 11.1798 33.3797 11.4615 33.3797C11.5758 33.3797 11.69 33.3569 11.8042 33.2961C13.3956 32.5041 14.606 31.4154 15.4514 30.0601V30.0676C15.5731 30.1512 15.7787 30.3266 16.0225 30.3266C16.1747 30.3266 16.4184 30.2198 16.4565 30.1896C24.5348 24.5627 34.3489 22.1874 44.1027 23.4893C44.3539 23.5199 44.6051 23.4284 44.7726 23.2456C44.9402 23.0552 45.0085 22.804 44.9477 22.5528L44.9402 22.5615ZM41.4303 16.8585L42.1689 18.8763C34.4481 18.9218 26.9714 21.1451 20.5295 25.2414C26.5065 20.4674 33.7474 17.5513 41.4301 16.8507L41.4303 16.8585ZM39.6182 7.09695C39.6869 7.39403 39.7552 7.66052 39.8239 7.94196C39.6869 7.64488 39.5499 7.34814 39.4204 7.05108L39.6261 7.09663L39.6182 7.09695ZM21.2681 16.2033C21.7324 15.2668 21.6182 14.0714 20.9561 13.0054C20.3014 11.9548 19.2885 11.2997 18.2986 11.2997C17.819 11.2997 17.0271 11.7412 16.0753 12.4343C16.0525 12.2514 16.0219 12.0689 15.9764 11.8939C21.1386 8.00324 24.3364 6.54127 30.664 5.17823C33.0672 5.17823 33.0345 5.17823 34.5016 7.13507C35.0954 8.44476 35.4914 9.3051 36.0625 10.546C36.405 11.2904 36.6791 11.9394 36.405 12.4343C36.1158 12.9598 35.6429 13.0054 34.5169 13.4319C28.2659 14.8024 24.8397 16.3707 19.6927 20.2083C19.5098 19.9952 19.2892 19.8202 19.0608 19.6753C19.9898 18.3048 20.9109 16.8962 21.2614 16.2035L21.2681 16.2033ZM18.2072 20.9314C18.4584 21.0762 18.6715 21.3047 18.8163 21.6242C19.0219 22.0885 19.6464 22.1724 19.9737 21.9212C25.5626 17.6649 28.7833 16.188 35.6429 14.7566C39.0387 14.048 38.0924 11.6881 37.8278 10.7137C36.9675 8.84086 36.5409 7.90403 35.6884 6.03116C35.5514 5.7266 35.1566 4.69279 34.8215 4.73086C34.2016 3.52446 31.962 3.34244 30.9068 3.57192C23.8486 5.04138 20.3543 6.64815 14.6286 11.0108C14.3468 11.224 14.2479 11.6047 14.4002 11.932C14.6286 12.4344 14.6592 13.0513 14.5069 13.6757C13.6085 14.4297 12.6567 15.2821 11.7277 16.1503C11.0272 14.6122 10.2736 12.9752 10.2736 12.9678C12.3674 10.874 14.6669 9.03128 17.1337 7.4782C17.1717 7.45543 24.6409 2.30069 35.2471 1.54678C36.4728 4.23447 37.4324 6.32827 38.3763 8.39188C38.3838 8.42247 38.3991 8.45273 38.4144 8.48332C39.3736 10.5846 40.3254 12.6557 41.5361 15.3053C32.194 16.0973 23.4758 20.0641 16.7224 26.5661C16.9053 25.4547 16.9355 24.2438 16.8213 22.9189C17.0803 22.5535 17.6133 21.7996 18.2224 20.924L18.2072 20.9314ZM28.349 23.0178C32.9327 21.2591 37.8434 20.3604 42.8539 20.4138L43.204 21.8529C38.1787 21.32 33.1535 21.7234 28.3493 23.0104L28.349 23.0178Z"></path>
        <path d="M20.9727 28.8433C20.5692 28.7291 20.1504 28.9576 20.0284 29.361C19.6857 30.5486 19.3812 31.1429 19.1908 31.4321C18.0715 33.1147 14.1731 34.5232 12.7644 34.9271C12.6577 34.9577 12.5513 35.0185 12.4674 35.0868L5.61477 41.178C5.30274 41.4598 5.27214 41.9394 5.55393 42.2515C5.81294 42.5485 6.30785 42.6016 6.62737 42.3123L13.3505 36.3353C14.409 36.0154 18.9315 34.5534 20.4621 32.2692C20.8353 31.7135 21.1701 30.8912 21.4974 29.7719C21.6117 29.3685 21.3832 28.9497 20.9798 28.8276L20.9727 28.8433Z"></path>
    </symbol>

    <symbol id="delivery" fill="none" xmlns="http://www.w3.org/2000/svg" viewBox="0 0 35 43">
        <path d="M33.5668 25.1771C32.496 21.3965 28.2617 19.5626 25.7139 18.7867C25.847 18.6387 25.917 18.434 25.8889 18.2224C25.8539 17.9613 25.6858 17.7428 25.4408 17.6512C24.1741 17.1716 23.4461 16.6425 22.6131 15.5562C22.914 14.8439 23.0962 14.096 23.0962 13.3765C23.0962 12.6075 23.1312 11.0982 23.1593 10.2587C24.7059 10.026 24.9508 9.70858 25.0559 9.5675C25.2868 9.25701 25.8117 8.53783 23.173 6.08284L23.7748 3.54352C23.8307 3.29665 23.7607 3.04284 23.5789 2.8665C19.6039 -0.956655 15.3906 -0.956655 11.4152 2.87343C11.2333 3.04977 11.1633 3.30357 11.2193 3.55045L11.821 6.08977C9.18241 8.54436 9.70729 9.26391 9.93821 9.57443C10.0432 9.7155 10.2882 10.0329 11.8348 10.2656C11.8557 11.1051 11.8979 12.6144 11.8979 13.3834C11.8979 14.103 12.0729 14.8505 12.381 15.5631C11.548 16.6495 10.8271 17.1855 9.55324 17.6581C9.30828 17.7497 9.14018 17.9686 9.10518 18.2293C9.07706 18.434 9.14705 18.6384 9.28016 18.7936C6.73239 19.5695 2.49807 21.4034 1.42728 25.184C0.559251 28.2313 0.0274924 32.1741 0.00653566 32.3366C-0.0565795 32.7951 0.349611 33.1336 0.699557 33.1336H1.39945V36.6604C1.39945 39.1714 8.16026 42.1129 10.2389 42.9593C10.3229 42.9946 10.5957 43.0087 10.652 42.9946C13.3047 42.4019 16.3842 41.457 17.2519 40.1873H17.7487C18.6167 41.457 21.6963 42.395 24.3487 42.9946C24.3977 43.0087 24.6777 42.9946 24.7617 42.9593C26.8332 42.1198 33.6012 39.1714 33.6012 36.6604V33.1336H34.3011C34.861 33.1336 35.0359 32.6468 34.9941 32.3366C34.9731 32.1672 34.441 28.2313 33.5733 25.184L33.5668 25.1771ZM22.3197 3.62116L21.8089 5.75838C18.9462 6.51318 16.0416 6.51318 13.179 5.75838L12.6681 3.62116C15.9086 0.665563 19.0721 0.665563 22.3122 3.62116H22.3197ZM12.794 7.10583C14.3547 7.52212 15.9225 7.73373 17.4901 7.73373C19.0581 7.73373 20.6328 7.5152 22.1863 7.10583C22.8303 7.71231 23.4179 8.3613 23.691 8.75654C22.9352 8.95398 21.0733 9.14449 17.4901 9.14449C13.9066 9.14449 11.576 8.834 11.2892 8.75654C11.5551 8.36167 12.1501 7.71268 12.794 7.10583ZM17.4901 10.5621C19.3308 10.5621 20.7028 10.5057 21.7454 10.421C21.7245 11.2886 21.6895 12.6429 21.6895 13.3836C21.6895 15.7182 19.1839 18.3211 17.4901 18.3211C15.7963 18.3211 13.2908 15.7182 13.2908 13.3836C13.2908 12.6499 13.2558 11.2886 13.2348 10.421C14.2778 10.5058 15.6495 10.5621 17.4901 10.5621H17.4901ZM2.77079 25.5723C3.83471 21.8269 9.06983 20.2609 10.7286 19.8588L14.2912 22.4265C14.5152 22.5887 14.893 22.6592 15.1942 22.3491L16.594 20.9383C16.867 20.6631 16.867 20.2188 16.594 19.9439C16.3209 19.6687 15.88 19.6687 15.6072 19.9439L14.6274 20.9314L11.2048 18.4695C11.9397 18.0674 12.5346 17.5809 13.1226 16.8966C14.2356 18.512 15.9363 19.7392 17.5038 19.7392C19.0717 19.7392 20.7792 18.5117 21.885 16.8966C22.473 17.5809 23.0679 18.0674 23.8028 18.4695L20.3803 20.9314L19.4004 19.9439C19.1273 19.6687 18.6864 19.6687 18.4137 19.9439C18.1406 20.2191 18.1406 20.6634 18.4137 20.9383L19.8135 22.3491C20.0794 22.617 20.5134 22.5748 20.7164 22.4265L24.279 19.8588C25.9306 20.2609 31.173 21.8269 32.2368 25.5723C32.8458 27.7168 33.2936 30.4109 33.4966 31.7231H27.3094V23.9641C27.3094 23.5762 26.9945 23.2588 26.6095 23.2588H8.39793C8.01299 23.2588 7.69804 23.5762 7.69804 23.9641V31.7231H1.51082C1.71392 30.4041 2.16166 27.7168 2.77063 25.5723H2.77079ZM9.09798 38.7767V24.6694H14.3681V28.5205C14.3681 28.9085 14.6831 29.2259 15.068 29.2259H19.9182C20.3032 29.2259 20.6181 28.9085 20.6181 28.5205V24.6694H25.8883V38.7767H9.09798ZM15.7679 24.6694H19.2184V27.8152H15.7679V24.6694ZM10.5537 41.57C6.76738 40.0112 2.79175 37.6905 2.79175 36.6608V33.134H7.691V39.4822C7.691 39.8702 8.00595 40.1876 8.39089 40.1876H14.893C13.8363 40.653 12.2265 41.1751 10.5468 41.57H10.5537ZM32.1872 36.6608C32.1872 37.6905 28.2119 40.0044 24.4252 41.57C22.7245 41.1751 21.0939 40.646 20.0441 40.1876H26.5812C26.9662 40.1876 27.2811 39.8702 27.2811 39.4822V33.134H32.1804V36.6608H32.1872Z"></path>
    </symbol>

    <symbol id="arrow-footer" fill="none" xmlns="http://www.w3.org/2000/svg" viewBox="0 0 10 19">
        <path d="M1 18L9 9.5L1 1" stroke="#463C88"></path>
    </symbol>
</svg>