<svg>
    <symbol id="logo" xmlns="http://www.w3.org/2000/svg" viewBox="0 0 88 26">
        <path d="M71.4315 11.3899L69.4543 10.8631C68.9347 10.7091 68.1822 10.6304 68.1822 10.0692C68.1822 9.74414 68.442 9.57306 69.0258 9.57306C69.4209 9.57306 70.056 9.81646 70.5127 10.1648C70.7498 10.3457 71.0657 10.4286 71.3311 10.2979L73.3043 9.32628C73.6751 9.14367 73.7845 8.6427 73.483 8.3517C72.2585 7.1697 70.6241 6.68539 69.0224 6.68539C66.5087 6.68539 64.41 7.94454 64.41 10.165C64.41 11.2838 64.8554 12.153 65.8946 12.7449C66.9068 13.3196 67.9933 13.5523 69.4036 13.9116C69.7714 14.0039 70.4294 14.175 70.4294 14.5958C70.4294 15.0544 69.9368 15.2117 69.3497 15.2117C68.5237 15.2117 67.8038 14.9117 67.3268 14.4552C67.0907 14.2293 66.7499 14.114 66.4604 14.2558L64.4217 15.2542C64.0854 15.4189 63.954 15.8546 64.1903 16.1546C65.4307 17.7297 67.5499 18.2158 69.019 18.2158C71.86 18.2123 74.2657 16.9534 74.2657 14.5138C74.2657 12.7893 72.9802 11.8587 71.4315 11.3899Z"></path>
        <path d="M60.454 4.0539C60.454 3.68791 60.1712 3.39123 59.8222 3.39123H57.607C57.258 3.39123 56.9752 3.68791 56.9752 4.0539V17.0043C56.9752 17.3703 57.258 17.667 57.607 17.667H59.8223C60.1712 17.667 60.454 17.3703 60.454 17.0043V9.8224H62.1017C62.4507 9.8224 62.7335 9.52572 62.7335 9.15974V7.2154C62.7335 6.84942 62.4507 6.55273 62.1017 6.55273H60.454V4.0539Z"></path>
        <path d="M49.6406 9.65373C50.744 9.65373 51.6874 10.3529 52.102 11.3367H47.2348C47.6428 10.3529 48.5699 9.65373 49.6406 9.65373ZM49.6374 6.68539C46.5982 6.68539 43.8726 8.84826 43.8726 12.4575C43.8726 15.9125 46.5982 18.2158 49.6374 18.2158C51.4754 18.2158 53.5084 17.685 54.6465 16.2864C54.8842 15.9942 54.757 15.5642 54.4276 15.3963L52.6595 14.4948C52.4474 14.3866 52.1975 14.4155 51.9934 14.5395C51.3027 14.9591 50.427 15.1721 49.641 15.1721C48.6123 15.1721 47.7146 14.5688 47.284 13.6537L54.7512 13.6569C55.0679 13.6571 55.3379 13.4113 55.3628 13.0801C55.3832 12.8076 55.3893 12.5896 55.3893 12.4575C55.3893 8.84826 52.6635 6.68539 49.6374 6.68539Z"></path>
        <path d="M36.3121 14.9784C34.9574 14.9715 33.8438 13.8962 33.8438 12.4705C33.8438 11.0724 34.9574 9.91819 36.3121 9.91118C37.6669 9.91819 38.7804 11.0724 38.7804 12.4705C38.7804 13.8962 37.6636 14.9715 36.3121 14.9784ZM36.3188 6.68543C33.1929 6.69227 30.3778 8.87723 30.3778 12.4877C30.3778 14.439 31.2731 16.0228 32.6147 17.0363C32.6147 17.0396 32.6147 17.0363 32.6147 17.0431C31.2038 17.2527 30.1365 18.5683 30.2555 20.1178C30.3712 21.6258 31.6531 22.6084 33.107 22.6084H42.7019C43.0508 22.6084 43.3337 22.3117 43.3337 21.9457V19.9522C43.3337 19.5863 43.0547 19.2897 42.7059 19.2895C40.7583 19.2887 34.9486 19.2864 34.9376 19.2864C34.6005 19.2726 34.3296 18.9841 34.3296 18.6302C34.3296 18.4069 34.4386 18.2076 34.6038 18.0909C34.6104 18.0874 34.6171 18.084 34.6237 18.0805C34.6468 18.0634 34.6733 18.0565 34.6997 18.0429C35.2185 18.1803 35.757 18.2591 36.3089 18.2591C36.3121 18.2591 36.3121 18.2591 36.3155 18.2591C36.3188 18.2591 36.3188 18.2591 36.322 18.2591C39.2728 18.249 41.9228 16.4659 42.2136 13.3912C42.2136 13.3809 42.2335 13.0684 42.2335 13.0169C42.2301 11.7766 41.6387 10.6773 40.73 10.0142H41.8593C42.2082 10.0142 42.4911 9.71755 42.4911 9.35157V7.3481C42.4911 6.98212 42.2082 6.68543 41.8593 6.68543H36.3188Z"></path>
        <path d="M84.229 6.68563C83.8801 6.68563 83.5972 6.98232 83.5972 7.3483V9.62899C83.5972 10.8416 82.5938 11.8239 81.355 11.8239C80.1162 11.8239 79.1128 10.8416 79.1128 9.62899V7.3483C79.1128 6.98232 78.83 6.68563 78.481 6.68563H75.9599C75.6109 6.68563 75.3281 6.98232 75.3281 7.3483V9.47866H75.3315C75.3554 12.2715 77.1846 14.1625 79.5258 14.8039V17.0043C79.5258 17.3703 79.8086 17.667 80.1576 17.667H82.706C83.055 17.667 83.3378 17.3703 83.3378 17.0043V14.7504C85.6039 14.0623 87.341 12.198 87.3649 9.47866H87.3683V7.3483C87.3683 6.98232 87.0854 6.68563 86.7365 6.68563H84.229Z"></path>
        <path fill-rule="evenodd" clip-rule="evenodd" d="M12.8944 -6.67572e-05C6.05502 -6.67572e-05 0.5 5.81624 0.5 12.9999C0.5 20.1735 6.04534 25.9999 12.8944 25.9999C19.7335 25.9999 25.2887 20.1836 25.2887 12.9999C25.2887 5.81624 19.7384 -6.67572e-05 12.8944 -6.67572e-05ZM19.7239 16.8268C18.4228 19.4755 15.8127 21.2727 12.8053 21.2727C8.50091 21.2727 5.00703 17.5663 5.00703 12.9999C5.00703 8.4336 8.50091 4.72722 12.8053 4.72722C15.7275 4.72722 18.285 6.4342 19.6184 8.96669C19.7036 9.12574 19.6389 9.34073 19.4848 9.42255L17.5555 10.4587C17.4097 10.5405 17.2232 10.4889 17.1421 10.3385C16.2746 8.75609 14.6575 7.6897 12.8094 7.6897C11.4191 7.6897 10.1789 8.28311 9.26691 9.24201C8.35496 10.2095 7.80382 11.5251 7.79575 12.9999C7.79575 14.4748 8.35496 15.7904 9.26691 16.7579C10.1789 17.7253 11.4191 18.3102 12.8094 18.3102C14.7144 18.3102 16.3681 17.1837 17.2192 15.5197C17.2961 15.3648 17.4785 15.3133 17.6245 15.3819L19.582 16.3538C19.7481 16.4483 19.813 16.6592 19.7239 16.8268ZM11.9428 14.3342H20.4653C20.642 14.3342 20.7858 14.1987 20.7817 14.0359V11.9677C20.7817 11.8012 20.6378 11.6656 20.4611 11.6656H11.9428C11.7661 11.6656 11.6223 11.8012 11.6223 11.9677V14.0321C11.6223 14.1987 11.7661 14.3342 11.9428 14.3342Z"></path>
    </symbol>

    <symbol id="arrow" xmlns="http://www.w3.org/2000/svg" viewBox="0 0 11 18">
        <path d="M10.0029 1L1.99713 9L10.0029 17" stroke-width="2"></path>
    </symbol>

    <symbol id="favorites" fill="none" xmlns="http://www.w3.org/2000/svg" viewBox="0 0 19 17">
        <path d="M10.7398 14.252L8.98286 16L2.01938 9.07229C1.12917 8.19462 0.626587 6.9866 0.626587 5.72451C0.626587 4.46242 1.12917 3.2544 2.01938 2.37672C2.91617 1.49503 4.11369 1.00226 5.35995 1.00226C6.60621 1.00226 7.80378 1.49503 8.70052 2.37672L8.98289 2.65716L9.26526 2.37497C10.1584 1.49642 11.3505 1.00378 12.592 1.00002C13.8335 0.996392 15.0283 1.48188 15.9265 2.35516L15.9463 2.38379C16.8343 3.2612 17.3354 4.46772 17.3354 5.72804C17.3354 6.40387 17.1914 7.06423 16.9208 7.66667" stroke="#463C88"></path>
        <path d="M13.1582 12.5H18.3797M15.769 10V15" stroke="#463C88" stroke-linecap="round"></path>
    </symbol>

    <symbol id="favorites-active" fill="none" xmlns="http://www.w3.org/2000/svg" viewBox="0 0 19 18">
        <path d="M17.3979 1.62619C16.3765 0.578257 15.0178 -0.00432947 13.6061 2.42267e-05C12.1944 0.00453936 10.8388 0.59571 9.82322 1.64996L9.50213 1.98859L9.18104 1.65207C8.16134 0.594042 6.79955 0.00270958 5.3824 0.00270958C3.96525 0.00270958 2.60354 0.594042 1.58377 1.65207C0.571497 2.70528 0 4.1549 0 5.66941C0 7.18392 0.571497 8.63354 1.58377 9.68675L9.5021 18L17.4204 9.68675C18.4302 8.63385 19 7.18604 19 5.67365C19 4.16126 18.4302 2.71344 17.4204 1.66054L17.3979 1.62619Z" fill="#D61212"></path>
    </symbol>

    <symbol id="comparison" fill="none" xmlns="http://www.w3.org/2000/svg" viewBox="0 0 14 18">
        <path d="M0.715195 7V17" stroke="#463C88" stroke-linecap="round"></path>
        <path d="M13.2468 11V17" stroke="#463C88" stroke-linecap="round"></path>
        <path d="M6.98102 1V17" stroke="#463C88" stroke-linecap="round"></path>
    </symbol>

    <symbol id="comparison-active" fill="none" xmlns="http://www.w3.org/2000/svg" viewBox="0 0 14 18">
        <path d="M0.715195 7V17" stroke="#D61212" stroke-linecap="round"></path>
        <path d="M13.2468 11V17" stroke="#D61212" stroke-linecap="round"></path>
        <path d="M6.98102 1V17" stroke="#D61212" stroke-linecap="round"></path>
    </symbol>

    <symbol id="search" fill="none" xmlns="http://www.w3.org/2000/svg" viewBox="0 0 16 17">
        <circle cx="8" cy="7.5" r="7" stroke="white"></circle>
        <line x1="12.2071" y1="13" x2="15.5" y2="16.2929" stroke="white" stroke-linecap="round"></line>
    </symbol>

    <symbol id="catalog" fill="none" xmlns="http://www.w3.org/2000/svg" viewBox="0 0 18 17">
        <rect x="1" y="0.5" width="7" height="7" rx="1.5"></rect>
        <rect x="1" y="9.5" width="7" height="7" rx="1.5"></rect>
        <rect x="10" y="0.5" width="7" height="7" rx="1.5"></rect>
        <rect x="10" y="9.5" width="7" height="7" rx="1.5"></rect>
    </symbol>

    <symbol id="location" fill="none" xmlns="http://www.w3.org/2000/svg" viewBox="0 0 13 19">
        <path d="M6.50001 18C10.4477 16.1231 17.7557 0.54541 6.50002 0.54541C-4.75569 0.54541 2.55223 16.1231 6.50001 18Z" stroke="white"></path>
        <circle cx="6.5" cy="6.54523" r="3.31818" stroke="white"></circle>
    </symbol>

    <symbol id="phone" fill="none" xmlns="http://www.w3.org/2000/svg" viewBox="0 0 17 18">
        <path fill-rule="evenodd" clip-rule="evenodd" d="M3.44636 1.17891L1.40232 3.21884C0.333442 4.288 0.292568 5.99293 0.870956 7.74386C1.44917 9.49496 2.66075 11.3924 4.38202 13.1143C6.1033 14.836 8.00486 16.0523 9.75541 16.6307C11.506 17.2091 13.206 17.1638 14.2748 16.0946L16.3189 14.0547C16.4349 13.9393 16.5 13.7823 16.5 13.6186C16.5 13.4548 16.4349 13.2979 16.3189 13.1825L13.0576 9.92034C12.9423 9.80425 12.7853 9.73917 12.6216 9.73917C12.4579 9.73917 12.301 9.80425 12.1857 9.92034L10.2235 11.8876C10.1902 11.921 10.1327 11.9567 9.96459 11.9603C9.79651 11.9641 9.53762 11.9177 9.23787 11.8013C8.63851 11.5684 7.88143 11.0668 7.18028 10.3656C6.47914 9.66431 5.97767 8.90253 5.74504 8.30302C5.62864 8.00319 5.58229 7.74888 5.58606 7.58055C5.58984 7.41243 5.62538 7.3549 5.65868 7.32158L7.62085 5.3589V5.35872C7.73673 5.24332 7.80197 5.08637 7.80197 4.92254C7.80197 4.75888 7.73673 4.60192 7.62085 4.48652L4.3141 1.1789C4.07409 0.940368 3.68662 0.940368 3.44661 1.1789L3.44636 1.17891Z" stroke="white"></path>
    </symbol>

</svg>